<svg width="32.000000" height="32.000000" viewBox="0 0 32 32" fill="none" xmlns="http://www.w3.org/2000/svg" xmlns:xlink="http://www.w3.org/1999/xlink">
	<desc>
			Created with Pixso.
	</desc>
	<defs>
		<clipPath id="clip2_25">
			<rect id="CodeLume-32" width="32.000000" height="32.000000" fill="white" fill-opacity="0"/>
		</clipPath>
	</defs>
	<rect id="CodeLume-32" width="32.000000" height="32.000000" fill="#FFFFFF" fill-opacity="0"/>
	<g clip-path="url(#clip2_25)">
		<rect id="矩形 1" x="3.125000" y="3.125000" rx="6.406250" width="25.750000" height="25.750000" fill="#FFFFFF" fill-opacity="1.000000"/>
		<path id="CD" d="M14.45 15.44Q14.73 15.22 14.97 14.94Q15.19 14.69 15.2 14.43Q15.2 14.39 15.2 14.36Q15.2 14.19 15.14 14.04Q15.09 13.92 15.01 13.83Q14.98 13.77 14.93 13.73Q14.78 13.57 14.55 13.47Q14.48 13.45 14.42 13.43Q14.18 13.36 13.92 13.4Q14.01 13.34 14 13.32Q13.99 13.3 13.82 13.37Q13.58 13.44 13.47 13.56Q13.36 13.63 13.26 13.71Q13.17 13.78 13.04 13.85Q12.76 14 12.38 14.12Q12.01 14.23 11.66 14.21Q11.45 14.2 11.27 14.13Q11.15 14.08 11.03 14.01Q11 13.99 10.97 13.97Q10.74 13.79 10.67 13.4Q10.62 13.14 10.65 12.86Q10.65 12.84 10.65 12.83Q10.68 12.55 10.75 12.27Q10.83 11.98 10.93 11.7Q11.03 11.42 11.15 11.18Q11.33 10.76 11.57 10.51Q11.72 10.34 11.9 10.2Q11.99 10.14 12.09 10.08Q12.38 9.9 12.73 9.77Q13.08 9.64 13.47 9.49Q13.56 9.45 13.63 9.39Q13.7 9.31 13.72 9.19Q13.75 9.07 13.71 8.98Q13.67 8.89 13.58 8.83Q12.93 8.4 12.3 8.41Q12.05 8.41 11.81 8.46Q11.45 8.55 11.11 8.74Q10.56 9.07 10.1 9.64Q9.86 9.93 9.65 10.26Q9.47 10.54 9.32 10.85Q9.01 11.44 8.85 12.08Q8.83 12.13 8.82 12.18Q8.65 12.86 8.67 13.4Q8.71 14.23 9.06 14.8Q9.32 15.21 9.68 15.52Q9.81 15.63 9.96 15.73Q10.06 15.8 10.17 15.86Q10.63 16.11 11.18 16.21Q11.5 16.27 11.83 16.27Q12.18 16.28 12.54 16.23Q12.72 16.2 12.9 16.16Q13.39 16.04 13.86 15.81Q14.18 15.65 14.45 15.44Z" fill="#31E0FC" fill-opacity="1.000000" fill-rule="evenodd"/>
		<path id="L" d="M7.75 24.89Q8.37 25.07 9.07 25.03Q9.55 25.01 10.21 24.98Q10.87 24.96 11.53 24.89Q12.2 24.81 12.81 24.65Q13.42 24.48 13.82 24.18Q14.04 24.01 14.15 23.78Q14.21 23.66 14.23 23.52Q14.28 23.21 14.2 22.95Q14.18 22.87 14.15 22.8Q14.08 22.66 13.99 22.55Q13.85 22.39 13.66 22.29Q13.61 22.26 13.56 22.24Q13.27 22.12 12.87 22.25Q12.17 22.49 11.41 22.58Q10.65 22.67 9.9 22.78L8.98 22.86Q8.69 22.96 8.66 22.91Q8.64 22.87 8.78 22.73Q8.74 22.64 8.77 22.45Q8.81 22.25 8.87 22.03Q8.94 21.81 9 21.62Q9.07 21.42 9.09 21.31Q9.38 20.03 9.77 18.79Q9.8 18.69 9.84 18.6Q10.01 18.06 10.14 17.52Q10.34 16.7 10.45 15.86Q10.46 15.76 10.43 15.68Q10.41 15.65 10.38 15.62Q10.33 15.55 10.26 15.52Q10.22 15.5 10.17 15.49Q10.05 15.47 9.92 15.51Q9.84 15.54 9.78 15.6Q9.75 15.63 9.73 15.66L9.7 15.64Q9.68 15.67 9.66 15.7Q8.99 16.67 8.53 17.78Q8.06 18.93 7.62 20.06Q7.47 20.48 7.26 20.97Q7.18 21.15 7.1 21.33Q6.98 21.65 6.87 21.98Q6.71 22.49 6.66 23.01Q6.64 23.33 6.7 23.62Q6.74 23.81 6.82 23.98Q7.04 24.51 7.45 24.76Q7.59 24.84 7.75 24.89Z" fill="#40929F" fill-opacity="1.000000" fill-rule="evenodd"/>
		<path id="CD" d="M17.5 15.27Q17.58 15.35 17.67 15.41Q17.97 15.61 18.3 15.76Q18.63 15.9 18.98 15.98Q19.39 16.07 19.8 16.08Q20.11 16.1 20.42 16.07Q20.79 16.04 21.15 15.95Q21.49 15.87 21.81 15.74Q22.44 15.48 22.94 15.08Q22.99 15.05 23.03 15.01Q23.23 14.85 23.4 14.67Q23.7 14.34 23.93 13.93Q24.02 13.78 24.09 13.61Q24.31 13.12 24.36 12.55Q24.42 12.09 24.34 11.6Q24.28 11.15 24.1 10.75Q24.08 10.72 24.07 10.68Q23.99 10.53 23.91 10.38Q23.75 10.12 23.54 9.88Q23.42 9.75 23.29 9.63Q23.06 9.43 22.79 9.27Q22.51 9.1 22.12 8.97Q21.74 8.84 21.31 8.77Q21.16 8.74 21.01 8.72Q20.74 8.69 20.46 8.69Q20.03 8.69 19.68 8.79Q19.63 8.68 19.55 8.6Q19.47 8.54 19.38 8.5Q19.32 8.48 19.27 8.48Q19.12 8.49 18.98 8.69Q18.65 9.22 18.46 9.84Q18.27 10.47 18.16 11.15Q18.06 11.82 18.03 12.53Q17.99 13.23 17.97 13.89Q17.74 13.89 17.59 13.99Q17.54 14.03 17.5 14.07Q17.42 14.16 17.37 14.27Q17.31 14.38 17.29 14.51Q17.29 14.57 17.28 14.62Q17.28 14.82 17.35 15.02Q17.41 15.17 17.5 15.27ZM20.95 9.71Q21.5 9.84 21.87 10Q22.32 10.2 22.62 10.53Q22.66 10.58 22.7 10.62Q22.95 10.92 23.07 11.27Q23.11 11.38 23.13 11.49Q23.15 11.57 23.16 11.65Q23.22 12.04 23.11 12.45Q23.1 12.5 23.09 12.55Q22.96 12.99 22.6 13.36Q22.36 13.64 22.06 13.84Q21.74 14.06 21.36 14.19Q20.93 14.33 20.48 14.36Q20.18 14.37 19.88 14.34Q19.9 13.77 19.94 13.16Q19.98 12.55 20 11.94Q20.03 11.32 20.01 10.71Q20 10.1 19.9 9.53Q20.41 9.57 20.95 9.71Z" fill="#FC31BD" fill-opacity="1.000000" fill-rule="evenodd"/>
		<path id="M" d="M24.15 17.57Q23.69 16.71 23.29 15.83Q23.26 15.75 23.21 15.69Q23.15 15.62 23.06 15.57Q23.01 15.54 22.94 15.52Q22.83 15.49 22.7 15.49Q22.63 15.5 22.55 15.52Q22.44 15.54 22.33 15.61Q22.17 15.7 22.08 15.83Q22.08 15.84 22.07 15.85Q21.96 16.08 21.86 16.3Q21.5 17.15 21.28 18.05Q21 19.2 20.76 20.4Q20.4 19.57 20.16 18.7Q19.92 17.82 19.82 16.9Q19.79 16.76 19.73 16.63Q19.67 16.49 19.56 16.37Q19.4 16.19 19.19 16.1Q19.14 16.08 19.09 16.07Q18.99 16.04 18.89 16.03Q18.73 16.02 18.56 16.08Q18.51 16.09 18.47 16.11Q18.26 16.21 18.13 16.49Q17.21 18.28 16.3 20.09Q15.92 20.85 15.61 21.65Q15.19 22.73 14.91 23.86Q14.9 23.91 14.89 23.96Q14.89 24.04 14.92 24.12Q14.94 24.16 14.95 24.19Q15.01 24.28 15.09 24.34Q15.19 24.41 15.3 24.43Q15.33 24.43 15.35 24.43Q15.38 24.43 15.4 24.42Q15.5 24.4 15.59 24.3Q16.51 23.25 17.2 22.08Q17.89 20.91 18.52 19.66Q18.83 20.84 19.29 21.92Q19.75 23.01 20.38 24.08Q20.46 24.22 20.58 24.32Q20.69 24.4 20.82 24.46Q21.02 24.53 21.22 24.53Q21.3 24.53 21.39 24.52Q21.53 24.5 21.66 24.44Q21.79 24.38 21.9 24.29Q21.96 24.25 22 24.2Q22.15 24.03 22.2 23.77Q22.44 22.46 22.61 21.19Q22.79 19.92 22.99 18.61Q23.51 19.92 24.03 21.22Q24.3 21.88 24.62 22.52Q24.93 23.14 25.28 23.73Q25.51 24.09 25.79 24.14Q25.84 24.15 25.88 24.15Q26.09 24.15 26.26 24.07Q26.38 24.02 26.48 23.94Q26.56 23.87 26.63 23.78Q26.76 23.62 26.81 23.39Q26.86 23.21 26.82 23.05Q26.78 22.91 26.68 22.79Q26.35 21.89 25.93 21.02Q25.5 20.14 25.05 19.29Q24.61 18.44 24.15 17.57Z" fill="#C7088D" fill-opacity="1.000000" fill-rule="evenodd"/>
	</g>
</svg>
